<?xml version="1.0" encoding="UTF-8"?><svg xmlns="http://www.w3.org/2000/svg" viewBox="0 0 64 64"><defs><style>.h{opacity:.2;}.i{opacity:.01;}.j{fill:#fff;opacity:.5;}</style></defs><g id="a"><rect id="b" class="i" x=".00001" y=".00001" width="64" height="64"/></g><g id="e"><path class="h" d="M54,5.00043H10c-2.75684,0-5,2.24316-5,5V54.00043c0,2.75684,2.24316,5,5,5H54c2.75684,0,5-2.24316,5-5V10.00043c0-2.75684-2.24316-5-5-5Zm4,49c0,2.20605-1.79395,4-4,4H10c-2.20605,0-4-1.79395-4-4V10.00043c0-2.20605,1.79395-4,4-4H54c2.20605,0,4,1.79395,4,4V54.00043Z"/><path class="h" d="M54,2.00043H10C5.58887,2.00043,2,5.58929,2,10.00043V54.00043c0,4.41113,3.58887,8,8,8H54c4.41113,0,8-3.58887,8-8V10.00043c0-4.41113-3.58887-8-8-8Zm7,52c0,3.85938-3.14062,7-7,7H10c-3.85938,0-7-3.14062-7-7V10.00043c0-3.85938,3.14062-7,7-7H54c3.85938,0,7,3.14062,7,7V54.00043Z"/><path class="h" d="M38.8877,38.70453l-4.6084-6.79688,4.37402-6.4248c.20898-.30566,.23145-.70215,.05762-1.03027-.17285-.32715-.51367-.53223-.88379-.53223h-2.30664c-.33789,0-.65234,.16992-.83691,.45215l-2.75684,4.21484-2.78125-4.21777c-.18555-.28027-.49902-.44922-.83496-.44922h-2.42285c-.37109,0-.71094,.20508-.88379,.53223-.17383,.32812-.15137,.72461,.05762,1.03125l4.37305,6.41895-4.6875,6.79492c-.21094,.30664-.23535,.7041-.0625,1.0332s.51367,.53516,.88574,.53516h2.33496c.33496,0,.64648-.16699,.83203-.44531l3.08496-4.63184,2.99512,4.62109c.18359,.28418,.5,.45605,.83887,.45605h2.40332c.37012,0,.70996-.2041,.88379-.53125,.17285-.32715,.15137-.72363-.05566-1.03027Zm-3.23145,.56152l-3.82227-5.89844-3.92871,5.89844h-2.33496l5.07715-7.35938-4.75977-6.98633h2.42285l3.62012,5.48828,3.58984-5.48828h2.30664l-4.75684,6.98633,4.98926,7.35938h-2.40332Z"/></g><g id="f"><path class="j" d="M54,61.00043H10c-3.85938,0-7-3.14062-7-7V10.00043c0-3.85938,3.14062-7,7-7H54c3.85938,0,7,3.14062,7,7V54.00043c0,3.85938-3.14062,7-7,7ZM10,5.00043c-2.75684,0-5,2.24316-5,5V54.00043c0,2.75684,2.24316,5,5,5H54c2.75684,0,5-2.24316,5-5V10.00043c0-2.75684-2.24316-5-5-5H10Z"/><path class="j" d="M27.90527,39.26606h-2.33496l5.07715-7.35938-4.75977-6.98633h2.42285l3.62012,5.48828,3.58984-5.48828h2.30664l-4.75684,6.98633,4.98926,7.35938h-2.40332l-3.82227-5.89844-3.92871,5.89844Z"/></g></svg>