<?xml version="1.0" encoding="UTF-8"?><svg xmlns="http://www.w3.org/2000/svg" viewBox="0 0 64 64"><defs><style>.h{opacity:.2;}.i{opacity:.01;}.j{fill:#fff;opacity:.5;}</style></defs><g id="a"><rect id="b" class="i" x=".00001" y=".00001" width="64" height="64"/></g><g id="e"><path class="h" d="M54,5.00043H10c-2.75684,0-5,2.24316-5,5V54.00043c0,2.75684,2.24316,5,5,5H54c2.75684,0,5-2.24316,5-5V10.00043c0-2.75684-2.24316-5-5-5Zm4,49c0,2.20605-1.79395,4-4,4H10c-2.20605,0-4-1.79395-4-4V10.00043c0-2.20605,1.79395-4,4-4H54c2.20605,0,4,1.79395,4,4V54.00043Z"/><path class="h" d="M54,2.00043H10C5.58887,2.00043,2,5.58929,2,10.00043V54.00043c0,4.41113,3.58887,8,8,8H54c4.41113,0,8-3.58887,8-8V10.00043c0-4.41113-3.58887-8-8-8Zm7,52c0,3.85938-3.14062,7-7,7H10c-3.85938,0-7-3.14062-7-7V10.00043c0-3.85938,3.14062-7,7-7H54c3.85938,0,7,3.14062,7,7V54.00043Z"/><path class="h" d="M23.76074,28.07758h4.23926v20.88574h8V28.07758h4.24023l-8.23926-14.26953-8.24023,14.26953Zm12.23926-1c-.55273,0-1,.44727-1,1v19.88574h-6V28.07758c0-.55273-.44727-1-1-1h-2.50684l6.50781-11.26953,6.50684,11.26953h-2.50781Z"/><path class="h" d="M44.57129,29.57758l-11.7041-20.26953c-.17871-.30957-.50879-.5-.86621-.5s-.6875,.19043-.86621,.5l-11.70508,20.26953c-.17871,.30957-.17871,.69043,0,1s.50879,.5,.86621,.5h4.7041v19.88574c0,.55273,.44727,1,1,1h12c.55273,0,1-.44727,1-1V31.07758h4.70508c.35742,0,.6875-.19043,.86621-.5s.17871-.69043,0-1Zm-6.57129,.5v20.88574h-12V30.07758h-5.7041l11.70508-20.26953,11.7041,20.26953h-5.70508Z"/></g><g id="f"><path class="j" d="M54,61.00043H10c-3.85938,0-7-3.14062-7-7V10.00043c0-3.85938,3.14062-7,7-7H54c3.85938,0,7,3.14062,7,7V54.00043c0,3.85938-3.14062,7-7,7ZM10,5.00043c-2.75684,0-5,2.24316-5,5V54.00043c0,2.75684,2.24316,5,5,5H54c2.75684,0,5-2.24316,5-5V10.00043c0-2.75684-2.24316-5-5-5H10Z"/><path class="j" d="M38,50.96333h-12V30.07758h-5.7041l11.70508-20.26953,11.7041,20.26953h-5.70508v20.88574Zm-10-2h8V28.07758h4.24023l-8.23926-14.26953-8.24023,14.26953h4.23926v20.88574Z"/></g></svg>