<?xml version="1.0" encoding="UTF-8"?><svg xmlns="http://www.w3.org/2000/svg" viewBox="0 0 64 64"><defs><style>.h{fill:#fff;}.i{opacity:.3;}.j{opacity:.01;}</style></defs><g id="a"><rect id="b" class="j" x=".00001" y=".00001" width="64" height="64"/></g><g id="c"><path class="i" d="M10,62.00043c-4.41113,0-8-3.58887-8-8V10.00043C2,5.5893,5.58887,2.00043,10,2.00043H54c4.41113,0,8,3.58887,8,8V54.00043c0,4.41113-3.58887,8-8,8H10Zm0-56c-2.20605,0-4,1.79395-4,4V54.00043c0,2.20605,1.79395,4,4,4H54c2.20605,0,4-1.79395,4-4V10.00043c0-2.20605-1.79395-4-4-4H10Z"/><path class="i" d="M35.65625,40.26606c-.33887,0-.65527-.17188-.83887-.45605l-2.99512-4.62109-3.08496,4.63184c-.18555,.27832-.49707,.44531-.83203,.44531h-2.33496c-.37207,0-.71289-.20605-.88574-.53516s-.14844-.72656,.0625-1.0332l4.6875-6.79492-4.37305-6.41895c-.20898-.30664-.23145-.70312-.05762-1.03125,.17285-.32715,.5127-.53223,.88379-.53223h2.42285c.33594,0,.64941,.16895,.83496,.44922l2.78125,4.21777,2.75684-4.21484c.18457-.28223,.49902-.45215,.83691-.45215h2.30664c.37012,0,.71094,.20508,.88379,.53223,.17383,.32812,.15137,.72461-.05762,1.03027l-4.37402,6.4248,4.6084,6.79688c.20703,.30664,.22852,.70312,.05566,1.03027-.17383,.32715-.51367,.53125-.88379,.53125h-2.40332Z"/></g><g id="d"><path class="h" d="M54,61.00043H10c-3.85938,0-7-3.14062-7-7V10.00043c0-3.85938,3.14062-7,7-7H54c3.85938,0,7,3.14062,7,7V54.00043c0,3.85938-3.14062,7-7,7ZM10,5.00043c-2.75684,0-5,2.24316-5,5V54.00043c0,2.75684,2.24316,5,5,5H54c2.75684,0,5-2.24316,5-5V10.00043c0-2.75684-2.24316-5-5-5H10Z"/><path class="h" d="M27.90527,39.26606h-2.33496l5.07715-7.35938-4.75977-6.98633h2.42285l3.62012,5.48828,3.58984-5.48828h2.30664l-4.75684,6.98633,4.98926,7.35938h-2.40332l-3.82227-5.89844-3.92871,5.89844Z"/></g></svg>