<?xml version="1.0" encoding="UTF-8"?><svg xmlns="http://www.w3.org/2000/svg" viewBox="0 0 64 64"><defs><style>.h{fill:#fff;}.i{opacity:.3;}.j{opacity:.01;}</style></defs><g id="a"><rect id="b" class="j" x=".00001" y=".00001" width="64" height="64"/></g><g id="c"><path class="i" d="M10,62.00043c-4.41113,0-8-3.58887-8-8V10.00043C2,5.5893,5.58887,2.00043,10,2.00043H54c4.41113,0,8,3.58887,8,8V54.00043c0,4.41113-3.58887,8-8,8H10Zm0-56c-2.20605,0-4,1.79395-4,4V54.00043c0,2.20605,1.79395,4,4,4H54c2.20605,0,4-1.79395,4-4V10.00043c0-2.20605-1.79395-4-4-4H10Z"/><path class="i" d="M33.92285,44.70454c-.17285,0-.3457-.04492-.5-.13379-.30957-.17871-.5-.50879-.5-.86621v-4.7041H13.03711c-.55273,0-1-.44727-1-1v-12c0-.55273,.44727-1,1-1h19.88574v-4.70508c0-.35742,.19043-.6875,.5-.86621,.1543-.08887,.32715-.13379,.5-.13379s.3457,.04492,.5,.13379l20.26953,11.7041c.30957,.17871,.5,.50879,.5,.86621s-.19043,.6875-.5,.86621l-20.26953,11.70508c-.1543,.08887-.32715,.13379-.5,.13379Zm2-9.7041c.55273,0,1,.44727,1,1v2.50684l11.26953-6.50781-11.26953-6.50684v2.50781c0,.55273-.44727,1-1,1H16.03711v6h19.88574Z"/></g><g id="d"><path class="h" d="M54,61.00043H10c-3.85938,0-7-3.14062-7-7V10.00043c0-3.85938,3.14062-7,7-7H54c3.85938,0,7,3.14062,7,7V54.00043c0,3.85938-3.14062,7-7,7ZM10,5.00043c-2.75684,0-5,2.24316-5,5V54.00043c0,2.75684,2.24316,5,5,5H54c2.75684,0,5-2.24316,5-5V10.00043c0-2.75684-2.24316-5-5-5H10Z"/><path class="h" d="M33.92285,43.70454v-5.7041H13.03711v-12h20.88574v-5.70508l20.26953,11.7041-20.26953,11.70508Zm-18.88574-7.7041h20.88574v4.23926l14.26953-8.24023-14.26953-8.23926v4.24023H15.03711v8Z"/></g></svg>