<?xml version="1.0" encoding="UTF-8"?><svg xmlns="http://www.w3.org/2000/svg" viewBox="0 0 63.99994 63.99993"><defs><style>.h{fill:#fff;}.i{opacity:.3;}.j{opacity:.01;}</style></defs><g id="a"><rect id="b" class="j" x=".00001" y=".00001" width="64" height="64"/></g><g id="c"><path class="i" d="M9.99994,62.00036c-4.41113,0-8-3.58887-8-8V10.00036C1.99994,5.58923,5.58881,2.00036,9.99994,2.00036H53.99994c4.41113,0,8,3.58887,8,8V54.00036c0,4.41113-3.58887,8-8,8H9.99994Zm0-56c-2.20605,0-4,1.79395-4,4V54.00036c0,2.20605,1.79395,4,4,4H53.99994c2.20605,0,4-1.79395,4-4V10.00036c0-2.20605-1.79395-4-4-4H9.99994Z"/><path class="i" d="M26.19428,40.26599c-.55273,0-1-.44727-1-1v-1.61133c0-.22754,.07715-.44727,.21875-.625l7.52148-9.40039h-6.0957c-.55273,0-1-.44727-1-1v-1.70898c0-.55273,.44727-1,1-1h10.68359c.55273,0,1,.44727,1,1v1.66992c0,.22852-.07812,.45117-.22266,.62891l-7.55566,9.33789h6.77832c.55273,0,1,.44727,1,1v1.70898c0,.55273-.44727,1-1,1h-11.32812Z"/></g><g id="d"><path class="h" d="M53.99994,61.00036H9.99994c-3.85938,0-7-3.14062-7-7V10.00036c0-3.85938,3.14062-7,7-7H53.99994c3.85938,0,7,3.14062,7,7V54.00036c0,3.85938-3.14062,7-7,7ZM9.99994,5.00036c-2.75684,0-5,2.24316-5,5V54.00036c0,2.75684,2.24316,5,5,5H53.99994c2.75684,0,5-2.24316,5-5V10.00036c0-2.75684-2.24316-5-5-5H9.99994Z"/><path class="h" d="M26.19428,37.65466l8.82129-11.02539h-8.17676v-1.70898h10.68359v1.66992l-8.87402,10.9668h8.87402v1.70898h-11.32812v-1.61133Z"/></g></svg>