<?xml version="1.0" encoding="UTF-8"?><svg xmlns="http://www.w3.org/2000/svg" viewBox="0 0 64 64"><defs><style>.h{fill:#fff;}.i{opacity:.3;}.j{opacity:.01;}</style></defs><g id="a"><rect id="b" class="j" x=".00001" y=".00001" width="64" height="64"/></g><g id="c"><path class="i" d="M10,62.00043c-4.41113,0-8-3.58887-8-8V10.00043C2,5.5893,5.58887,2.00043,10,2.00043H54c4.41113,0,8,3.58887,8,8V54.00043c0,4.41113-3.58887,8-8,8H10Zm0-56c-2.20605,0-4,1.79395-4,4V54.00043c0,2.20605,1.79395,4,4,4H54c2.20605,0,4-1.79395,4-4V10.00043c0-2.20605-1.79395-4-4-4H10Z"/><path class="i" d="M26,51.96333c-.55273,0-1-.44727-1-1V31.07758h-4.7041c-.35742,0-.6875-.19043-.86621-.5s-.17871-.69043,0-1L31.13477,9.30805c.17871-.30957,.50879-.5,.86621-.5s.6875,.19043,.86621,.5l11.7041,20.26953c.17871,.30957,.17871,.69043,0,1s-.50879,.5-.86621,.5h-4.70508v19.88574c0,.55273-.44727,1-1,1h-12Zm9-4V28.07758c0-.55273,.44727-1,1-1h2.50781l-6.50684-11.26953-6.50781,11.26953h2.50684c.55273,0,1,.44727,1,1v19.88574h6Z"/></g><g id="d"><path class="h" d="M54,61.00043H10c-3.85938,0-7-3.14062-7-7V10.00043c0-3.85938,3.14062-7,7-7H54c3.85938,0,7,3.14062,7,7V54.00043c0,3.85938-3.14062,7-7,7ZM10,5.00043c-2.75684,0-5,2.24316-5,5V54.00043c0,2.75684,2.24316,5,5,5H54c2.75684,0,5-2.24316,5-5V10.00043c0-2.75684-2.24316-5-5-5H10Z"/><path class="h" d="M38,50.96333h-12V30.07758h-5.7041l11.70508-20.26953,11.7041,20.26953h-5.70508v20.88574Zm-10-2h8V28.07758h4.24023l-8.23926-14.26953-8.24023,14.26953h4.23926v20.88574Z"/></g></svg>