<?xml version="1.0" encoding="UTF-8"?><svg xmlns="http://www.w3.org/2000/svg" viewBox="0 0 64.00003 64"><defs><style>.h{opacity:.2;}.i{opacity:.01;}.j{fill:#fff;opacity:.5;}</style></defs><g id="a"><rect id="b" class="i" x=".00001" y=".00001" width="64" height="64"/></g><g id="e"><path class="h" d="M54.00003,5.00043H10.00003c-2.75684,0-5,2.24316-5,5V54.00043c0,2.75684,2.24316,5,5,5H54.00003c2.75684,0,5-2.24316,5-5V10.00043c0-2.75684-2.24316-5-5-5Zm4,49c0,2.20605-1.79395,4-4,4H10.00003c-2.20605,0-4-1.79395-4-4V10.00043c0-2.20605,1.79395-4,4-4H54.00003c2.20605,0,4,1.79395,4,4V54.00043Z"/><path class="h" d="M54.00003,2.00043H10.00003C5.5889,2.00043,2.00003,5.58929,2.00003,10.00043V54.00043c0,4.41113,3.58887,8,8,8H54.00003c4.41113,0,8-3.58887,8-8V10.00043c0-4.41113-3.58887-8-8-8Zm7,52c0,3.85938-3.14062,7-7,7H10.00003c-3.85938,0-7-3.14062-7-7V10.00043c0-3.85938,3.14062-7,7-7H54.00003c3.85938,0,7,3.14062,7,7V54.00043Z"/><path class="h" d="M38.52249,26.59027v-1.66992c0-.55273-.44727-1-1-1h-10.68359c-.55273,0-1,.44727-1,1v1.70898c0,.55273,.44727,1,1,1h6.0957l-7.52148,9.40039c-.1416,.17773-.21875,.39746-.21875,.625v1.61133c0,.55273,.44727,1,1,1h11.32812c.55273,0,1-.44727,1-1v-1.70898c0-.55273-.44727-1-1-1h-6.77832l7.55566-9.33789c.14453-.17773,.22266-.40039,.22266-.62891Zm-1,0l-8.87402,10.9668h8.87402v1.70898h-11.32812v-1.61133l8.82129-11.02539h-8.17676v-1.70898h10.68359v1.66992Z"/></g><g id="f"><path class="j" d="M54.00003,61.00043H10.00003c-3.85938,0-7-3.14062-7-7V10.00043c0-3.85938,3.14062-7,7-7H54.00003c3.85938,0,7,3.14062,7,7V54.00043c0,3.85938-3.14062,7-7,7ZM10.00003,5.00043c-2.75684,0-5,2.24316-5,5V54.00043c0,2.75684,2.24316,5,5,5H54.00003c2.75684,0,5-2.24316,5-5V10.00043c0-2.75684-2.24316-5-5-5H10.00003Z"/><path class="j" d="M26.19437,37.65473l8.82129-11.02539h-8.17676v-1.70898h10.68359v1.66992l-8.87402,10.9668h8.87402v1.70898h-11.32812v-1.61133Z"/></g></svg>