<?xml version="1.0" encoding="UTF-8"?><svg xmlns="http://www.w3.org/2000/svg" viewBox="0 0 64 64"><defs><style>.h{fill:#fff;}.i{opacity:.3;}.j{opacity:.01;}</style></defs><g id="a"><rect id="b" class="j" width="64" height="64"/></g><g id="c"><path class="i" d="M10,62.00043c-4.41113,0-8-3.58887-8-8V10.00043C2,5.5893,5.58887,2.00043,10,2.00043H54c4.41113,0,8,3.58887,8,8V54.00043c0,4.41113-3.58887,8-8,8H10Zm0-56c-2.20557,0-4,1.79395-4,4V54.00043c0,2.20605,1.79443,4,4,4H54c2.20605,0,4-1.79395,4-4V10.00043c0-2.20605-1.79395-4-4-4H10Z"/><path class="i" d="M30.07715,44.70454c-.17285,0-.3457-.04492-.5-.13379l-20.26855-11.70508c-.30957-.17871-.5-.50879-.5-.86621s.19043-.6875,.5-.86621l20.26855-11.7041c.1543-.08887,.32715-.13379,.5-.13379s.3457,.04492,.5,.13379c.30957,.17871,.5,.50879,.5,.86621v4.70508h19.88574c.55273,0,1,.44727,1,1v12c0,.55273-.44727,1-1,1H31.07715v4.7041c0,.35742-.19043,.6875-.5,.86621-.1543,.08887-.32715,.13379-.5,.13379Zm-3-6.19727v-2.50684c0-.55273,.44775-1,1-1h19.88574v-6H28.07715c-.55225,0-1-.44727-1-1v-2.50781l-11.26953,6.50684,11.26953,6.50781Z"/></g><g id="d"><path class="h" d="M54,61.00043H10c-3.85986,0-7-3.14062-7-7V10.00043c0-3.85938,3.14014-7,7-7H54c3.85938,0,7,3.14062,7,7V54.00043c0,3.85938-3.14062,7-7,7ZM10,5.00043c-2.75684,0-5,2.24316-5,5V54.00043c0,2.75684,2.24316,5,5,5H54c2.75684,0,5-2.24316,5-5V10.00043c0-2.75684-2.24316-5-5-5H10Z"/><path class="h" d="M30.07715,43.70454L9.80859,31.99946l20.26855-11.7041v5.70508h20.88574v12H30.07715v5.7041ZM13.80762,31.99946l14.26953,8.24023v-4.23926h20.88574v-8H28.07715v-4.24023l-14.26953,8.23926Z"/></g></svg>