<?xml version="1.0" encoding="UTF-8"?><svg xmlns="http://www.w3.org/2000/svg" viewBox="0 0 127.99997 64"><defs><style>.h{opacity:.2;}.i{opacity:.01;}.j{fill:#fff;opacity:.5;}</style></defs><g id="a"><rect id="b" class="i" x=".00001" y=".00002" width="127.99997" height="64"/></g><g id="e"><path class="h" d="M118,5.00043H10c-2.75684,0-5,2.24316-5,5V54.00043c0,2.75684,2.24316,5,5,5H118c2.75684,0,5-2.24316,5-5V10.00043c0-2.75684-2.24316-5-5-5Zm4,49c0,2.20605-1.79395,4-4,4H10c-2.20605,0-4-1.79395-4-4V10.00043c0-2.20605,1.79395-4,4-4H118c2.20605,0,4,1.79395,4,4V54.00043Z"/><path class="h" d="M118,2.00043H10C5.58887,2.00043,2,5.58929,2,10.00043V54.00043c0,4.41113,3.58887,8,8,8H118c4.41113,0,8-3.58887,8-8V10.00043c0-4.41113-3.58887-8-8-8Zm7,52c0,3.85938-3.14062,7-7,7H10c-3.85938,0-7-3.14062-7-7V10.00043c0-3.85938,3.14062-7,7-7H118c3.85938,0,7,3.14062,7,7V54.00043Z"/><path class="h" d="M42.9209,44.60687c-.48047,0-.88281,.1748-1.20801,.52441-.32617,.34961-.49805,.79395-.51758,1.33301h3.45703c-.04297-.45703-.1416-.82227-.2959-1.0957-.28711-.50781-.76562-.76172-1.43555-.76172Z"/><path class="h" d="M22.7627,44.60101c-.7334,0-1.23438,.36523-1.50488,1.0957-.14551,.39062-.21777,.88672-.21777,1.48828,0,.48438,.07227,.89648,.21777,1.23633,.27441,.64844,.77539,.97266,1.50488,.97266,.49414,0,.9043-.20605,1.23145-.61816s.49121-1.02832,.49121-1.84863c0-.5-.07227-.92969-.21777-1.28906-.27441-.69141-.77539-1.03711-1.50488-1.03711Zm.44824,3.55273c-.1582,.19922-.29395,.24023-.44824,.24023-.36621,0-.48047-.11719-.58594-.36621-.09082-.21289-.13672-.49609-.13672-.84277,0-.48047,.05176-.86328,.15527-1.14062,.13965-.37695,.29395-.44336,.56738-.44336,.31738,0,.45215,.09473,.57812,.41211,.0957,.2373,.14453,.54492,.14453,.91406,0,.56836-.09766,1.00391-.27441,1.22656Z"/><path class="h" d="M46.73633,47.30219c0-.70801-.03711-1.22852-.10645-1.54688-.09375-.56055-.28613-1.06348-.56934-1.49023-.31348-.48047-.76367-.87012-1.33594-1.1582-.55469-.27832-1.13867-.41992-1.7373-.41992-1.16113,0-2.15918,.44629-2.8877,1.28906-.15204,.17596-.2804,.36786-.3999,.56543-.20282-.48242-.48236-.8808-.85596-1.16992-.62012-.48145-1.40723-.72559-2.33789-.72559-1.11035,0-2.07812,.43652-2.79883,1.2627-.30023,.34406-.52356,.75226-.69531,1.20129-.08136-.79419-.4624-1.45459-1.12988-1.86633-.61719-.37695-1.39746-.56836-2.31738-.56836-.82617,0-1.56934,.20508-2.20996,.60938-.42468,.26764-.91357,.76807-1.11859,1.6593-.16528-.42352-.38214-.80579-.6734-1.12512-.68262-.74805-1.56641-1.14355-2.55469-1.14355-.53418,0-1.02441,.10742-1.45215,.31445-.14648-.08496-.31641-.13281-.49805-.13281h-1.03125c-.55273,0-1,.44727-1,1v.2937c-.05377-.08807-.10376-.177-.16797-.26245-.62109-.8125-1.58594-1.22461-2.86719-1.22461-.97266,0-1.77832,.26465-2.39551,.78809-.65625,.55566-1.00391,1.31836-1.00391,2.2041,0,.57812,.19238,1.09863,.55176,1.5166-.16992,.04785-.3252,.14062-.4502,.27051-.18848,.19727-.28809,.46289-.27637,.73535,.03809,.86523,.33984,1.6084,.89844,2.20996,.58789,.63379,1.51074,.95508,2.74023,.95508,1.1377,0,2.02832-.29688,2.64844-.88379,.12201-.1153,.22302-.24146,.32227-.36835v2.51385c0,.55273,.44727,1,1,1h1.05469c.55273,0,1-.44727,1-1v-1.38086c.25781,.05957,.53223,.08984,.82324,.08984,.83789,0,1.58496-.2627,2.22168-.78223,.35992-.29425,.6308-.67493,.85663-1.09808,.14301,.40149,.36719,.7674,.68829,1.07465,.55957,.53418,1.27246,.80566,2.11719,.80566,.64258,0,1.24414-.1416,1.78809-.4209,.05664-.0293,.1123-.05957,.16699-.09082,.33594,.28418,.77344,.43555,1.27344,.43555,.20508,0,.36816-.01074,.48633-.02637,.11816-.0166,.29004-.05371,.51465-.11719,.42657-.12213,.71985-.51031,.72406-.95258,.66602,.73993,1.55908,1.14301,2.61188,1.14301,.96484,0,1.7832-.27051,2.43359-.80371,.33685-.2771,.6087-.62677,.81586-1.04388,.14758,.26178,.31616,.50775,.52203,.72455,.73242,.77246,1.64062,1.16406,2.69922,1.16406,.39746,0,.76562-.04102,1.08105-.12012,.64941-.15137,1.20703-.45215,1.64062-.87891,.26562-.25098,.50391-.56836,.70801-.94336,.21777-.39941,.34473-.76953,.3877-1.13086,.01758-.14941,.00098-.29883-.0459-.43848,.08887-.14941,.14062-.3252,.14062-.51172Zm-28.71973,2.43164c-.42969,.40625-1.08301,.60938-1.96094,.60938-.94531,0-1.61426-.21191-2.00781-.63574s-.60449-.94824-.63184-1.57324h1.01367c.03223,.35156,.12109,.62109,.26953,.80859,.27051,.33984,.74121,.50977,1.41113,.50977,.39844,0,.74902-.08496,1.05273-.25488,.30273-.16992,.4541-.43262,.4541-.78809,0-.26953-.12109-.47461-.36328-.61523-.15527-.08594-.46094-.18555-.91699-.29883l-.85156-.21094c-.54395-.13281-.94434-.28125-1.20312-.44531-.45996-.28516-.69043-.67969-.69043-1.18359,0-.59375,.2168-1.07422,.65039-1.44141s1.0166-.55078,1.74902-.55078c.95801,0,1.64844,.27734,2.07227,.83203,.26465,.35156,.39355,.73047,.38574,1.13672h-.99609c-.02051-.2373-.10645-.45215-.25781-.64648-.24805-.27637-.67773-.41406-1.29004-.41406-.40723,0-.7168,.07617-.92676,.22754-.20996,.15234-.31445,.35254-.31445,.60156,0,.27246,.1377,.49023,.41406,.6543,.15918,.09668,.39355,.18262,.7041,.25684l.71094,.16992c.77148,.18359,1.28906,.36133,1.55176,.5332,.41016,.26953,.61523,.69336,.61523,1.27148,0,.55859-.21484,1.04102-.64355,1.44727Zm-2.53613-1.41992l.55762,.1377c-.3623-.00977-.52148-.08789-.5498-.12305,0,0-.00293-.00488-.00781-.01465Zm3.5459-1.76166c-.01917-.02051-.03619-.04712-.05566-.06647,.02039-.01245,.03632-.03046,.05566-.04431v.11078Zm5.4668,3.20502c-.45508,.37109-.98438,.55664-1.58887,.55664-.47461,0-.87207-.10352-1.19336-.31055-.18848-.11719-.39844-.31836-.62988-.60352v3.20508h-1.05469v-8.74805h1.03125v.83203c.21191-.28516,.44238-.50586,.69336-.66211,.35645-.23438,.77539-.35156,1.25684-.35156,.71289,0,1.31836,.27246,1.81543,.81738s.74609,1.32324,.74609,2.33496c0,1.36719-.35938,2.34375-1.07617,2.92969Zm8.25,.375c-.16406,.04688-.28906,.07617-.375,.08789s-.20312,.01758-.35156,.01758c-.36328,0-.62695-.12891-.79102-.38672-.08594-.13672-.14648-.33008-.18164-.58008-.21484,.28125-.52344,.52539-.92578,.73242s-.8457,.31055-1.33008,.31055c-.58203,0-1.05762-.17676-1.42676-.5293-.36914-.35352-.55371-.79492-.55371-1.32617,0-.58105,.18164-1.03125,.54492-1.35156,.36328-.31934,.83984-.5166,1.42969-.59082l1.68164-.21094c.24219-.03125,.4043-.13281,.48633-.30371,.04688-.09473,.07031-.22949,.07031-.40625,0-.36035-.12793-.62207-.38281-.78516-.25586-.16309-.62109-.24414-1.09668-.24414-.5498,0-.93945,.14941-1.16992,.44727-.12793,.16504-.21191,.41016-.25098,.73633h-.98438c.01953-.77539,.27051-1.31543,.75195-1.61914s1.04102-.45508,1.67676-.45508c.7373,0,1.33594,.14062,1.79688,.42188,.45605,.28125,.68457,.71875,.68457,1.3125v3.61523c0,.10938,.02246,.19727,.06738,.26367s.13965,.09961,.28418,.09961c.04688,0,.09961-.00293,.1582-.00879s.12109-.01465,.1875-.02637v.7793Zm4.83496-5.15918c-.22266-.25586-.58008-.38379-1.07227-.38379-.67188,0-1.15234,.32812-1.44141,.9834-.1875,.4248-.28125,.9502-.28125,1.57422,0,.62793,.13281,1.15625,.39844,1.58594,.26562,.42871,.68359,.64355,1.25391,.64355,.4375,0,.78418-.13281,1.04004-.39941s.43262-.63184,.53027-1.09473h1.02539c-.11719,.83203-.41016,1.44043-.87891,1.8252s-1.06836,.57715-1.79883,.57715c-.82031,0-1.47461-.2998-1.96289-.89941s-.73242-1.34863-.73242-2.24707c0-1.10156,.26758-1.95898,.80273-2.57227s1.2168-.91992,2.04492-.91992c.70703,0,1.28223,.17188,1.72559,.51562s.70996,.93555,.7998,1.77539h-1.02539c-.0625-.38672-.20508-.70801-.42773-.96387Zm.19531,1.93652c-.36914,.08789-.66504,.38184-.74609,.7666-.05762,.27539-.15039,.47949-.27344,.6084-.02637,.02734-.08789,.0918-.31836,.0918-.29883,0-.35645-.09473-.40332-.16895-.16504-.26758-.24902-.62402-.24902-1.06055,0-.48145,.06641-.87598,.19629-1.1709,.1582-.3584,.3252-.38672,.52637-.38672,.22559,0,.3125,.04102,.31836,.04102,.09863,.11328,.16211,.26562,.19434,.46582,.06543,.40625,.36914,.72168,.75488,.81348Zm3.39844,.39258c.01953,.63867,.16895,1.15039,.44727,1.53613,.2793,.38574,.71191,.5791,1.29688,.5791,.54688,0,.98242-.18262,1.30762-.54785,.18262-.21094,.31152-.45703,.3877-.73535h1.03711c-.02734,.23047-.11816,.4873-.27246,.77051s-.32617,.51465-.5166,.69434c-.31738,.3125-.71094,.52344-1.18066,.63281-.25195,.0625-.53613,.09375-.85449,.09375-.77637,0-1.43457-.28418-1.97363-.85254-.54004-.56836-.80957-1.36426-.80957-2.3877,0-1.00781,.27148-1.82617,.81543-2.45508,.54297-.62891,1.25391-.94336,2.13086-.94336,.44336,0,.87207,.10449,1.28711,.31348,.41602,.20898,.73242,.47949,.94922,.81152,.20996,.31641,.34961,.68555,.41992,1.10742,.06152,.28906,.09277,.75,.09277,1.38281h-4.56445Zm2.19727,1c-.09375,.06543-.23047,.11523-.45312,.11523-.27051,0-.38672-.0625-.44336-.11523h.89648Z"/><path class="h" d="M29.89746,47.23676l-.63672,.08203c-.38281,.05078-.66992,.13086-.8623,.23926-.32617,.18359-.48926,.47559-.48926,.87695,0,.30469,.11133,.54395,.33398,.71973,.22266,.1748,.48633,.2627,.79102,.2627,.37109,0,.73047-.08594,1.07812-.25781,.58594-.28418,.87891-.75,.87891-1.39746v-.84863c-.12891,.08203-.29395,.15137-.49707,.20605s-.40137,.09375-.59668,.11719Zm-.86328,1.18066c-.04492,0-.07812-.00488-.10156-.00684,.06348-.02441,.2002-.06641,.45605-.09961l.24902-.03223c-.19922,.09277-.39746,.13867-.60352,.13867Z"/></g><g id="f"><path class="j" d="M118,61.00043H10c-3.85938,0-7-3.14062-7-7V10.00043c0-3.85938,3.14062-7,7-7H118c3.85938,0,7,3.14062,7,7V54.00043c0,3.85938-3.14062,7-7,7ZM10,5.00043c-2.75684,0-5,2.24316-5,5V54.00043c0,2.75684,2.24316,5,5,5H118c2.75684,0,5-2.24316,5-5V10.00043c0-2.75684-2.24316-5-5-5H10Z"/><path class="j" d="M14.42969,48.13422c.03223,.35156,.12109,.62109,.26953,.80859,.27051,.33984,.74121,.50977,1.41113,.50977,.39844,0,.74902-.08496,1.05273-.25488,.30273-.16992,.4541-.43262,.4541-.78809,0-.26953-.12109-.47461-.36328-.61523-.15527-.08594-.46094-.18555-.91699-.29883l-.85156-.21094c-.54395-.13281-.94434-.28125-1.20312-.44531-.45996-.28516-.69043-.67969-.69043-1.18359,0-.59375,.2168-1.07422,.65039-1.44141s1.0166-.55078,1.74902-.55078c.95801,0,1.64844,.27734,2.07227,.83203,.26465,.35156,.39355,.73047,.38574,1.13672h-.99609c-.02051-.2373-.10645-.45215-.25781-.64648-.24805-.27637-.67773-.41406-1.29004-.41406-.40723,0-.7168,.07617-.92676,.22754-.20996,.15234-.31445,.35254-.31445,.60156,0,.27246,.1377,.49023,.41406,.6543,.15918,.09668,.39355,.18262,.7041,.25684l.71094,.16992c.77148,.18359,1.28906,.36133,1.55176,.5332,.41016,.26953,.61523,.69336,.61523,1.27148,0,.55859-.21484,1.04102-.64355,1.44727-.42969,.40625-1.08301,.60938-1.96094,.60938-.94531,0-1.61426-.21191-2.00781-.63574s-.60449-.94824-.63184-1.57324h1.01367Z"/><path class="j" d="M20.02637,43.85688h1.03125v.83203c.21191-.28516,.44238-.50586,.69336-.66211,.35645-.23438,.77539-.35156,1.25684-.35156,.71289,0,1.31836,.27246,1.81543,.81738s.74609,1.32324,.74609,2.33496c0,1.36719-.35938,2.34375-1.07617,2.92969-.45508,.37109-.98438,.55664-1.58887,.55664-.47461,0-.87207-.10352-1.19336-.31055-.18848-.11719-.39844-.31836-.62988-.60352v3.20508h-1.05469v-8.74805Zm3.96777,4.91895c.32715-.41211,.49121-1.02832,.49121-1.84863,0-.5-.07227-.92969-.21777-1.28906-.27441-.69141-.77539-1.03711-1.50488-1.03711-.7334,0-1.23438,.36523-1.50488,1.0957-.14551,.39062-.21777,.88672-.21777,1.48828,0,.48438,.07227,.89648,.21777,1.23633,.27441,.64844,.77539,.97266,1.50488,.97266,.49414,0,.9043-.20605,1.23145-.61816Z"/><path class="j" d="M30.46387,46.30512c.24219-.03125,.4043-.13281,.48633-.30371,.04688-.09473,.07031-.22949,.07031-.40625,0-.36035-.12793-.62207-.38281-.78516-.25586-.16309-.62109-.24414-1.09668-.24414-.5498,0-.93945,.14941-1.16992,.44727-.12793,.16504-.21191,.41016-.25098,.73633h-.98438c.01953-.77539,.27051-1.31543,.75195-1.61914s1.04102-.45508,1.67676-.45508c.7373,0,1.33594,.14062,1.79688,.42188,.45605,.28125,.68457,.71875,.68457,1.3125v3.61523c0,.10938,.02246,.19727,.06738,.26367s.13965,.09961,.28418,.09961c.04688,0,.09961-.00293,.1582-.00879s.12109-.01465,.1875-.02637v.7793c-.16406,.04688-.28906,.07617-.375,.08789s-.20312,.01758-.35156,.01758c-.36328,0-.62695-.12891-.79102-.38672-.08594-.13672-.14648-.33008-.18164-.58008-.21484,.28125-.52344,.52539-.92578,.73242s-.8457,.31055-1.33008,.31055c-.58203,0-1.05762-.17676-1.42676-.5293-.36914-.35352-.55371-.79492-.55371-1.32617,0-.58105,.18164-1.03125,.54492-1.35156,.36328-.31934,.83984-.5166,1.42969-.59082l1.68164-.21094Zm-2.2207,2.84961c.22266,.1748,.48633,.2627,.79102,.2627,.37109,0,.73047-.08594,1.07812-.25781,.58594-.28418,.87891-.75,.87891-1.39746v-.84863c-.12891,.08203-.29395,.15137-.49707,.20605s-.40137,.09375-.59668,.11719l-.63672,.08203c-.38281,.05078-.66992,.13086-.8623,.23926-.32617,.18359-.48926,.47559-.48926,.87695,0,.30469,.11133,.54395,.33398,.71973Z"/><path class="j" d="M38.23145,44.16157c.44336,.34375,.70996,.93555,.7998,1.77539h-1.02539c-.0625-.38672-.20508-.70801-.42773-.96387s-.58008-.38379-1.07227-.38379c-.67188,0-1.15234,.32812-1.44141,.9834-.1875,.4248-.28125,.9502-.28125,1.57422,0,.62793,.13281,1.15625,.39844,1.58594,.26562,.42871,.68359,.64355,1.25391,.64355,.4375,0,.78418-.13281,1.04004-.39941s.43262-.63184,.53027-1.09473h1.02539c-.11719,.83203-.41016,1.44043-.87891,1.8252s-1.06836,.57715-1.79883,.57715c-.82031,0-1.47461-.2998-1.96289-.89941s-.73242-1.34863-.73242-2.24707c0-1.10156,.26758-1.95898,.80273-2.57227s1.2168-.91992,2.04492-.91992c.70703,0,1.28223,.17188,1.72559,.51562Z"/><path class="j" d="M44.27441,44.00043c.41602,.20898,.73242,.47949,.94922,.81152,.20996,.31641,.34961,.68555,.41992,1.10742,.06152,.28906,.09277,.75,.09277,1.38281h-4.56445c.01953,.63867,.16895,1.15039,.44727,1.53613,.2793,.38574,.71191,.5791,1.29688,.5791,.54688,0,.98242-.18262,1.30762-.54785,.18262-.21094,.31152-.45703,.3877-.73535h1.03711c-.02734,.23047-.11816,.4873-.27246,.77051s-.32617,.51465-.5166,.69434c-.31738,.3125-.71094,.52344-1.18066,.63281-.25195,.0625-.53613,.09375-.85449,.09375-.77637,0-1.43457-.28418-1.97363-.85254-.54004-.56836-.80957-1.36426-.80957-2.3877,0-1.00781,.27148-1.82617,.81543-2.45508,.54297-.62891,1.25391-.94336,2.13086-.94336,.44336,0,.87207,.10449,1.28711,.31348Zm.37793,2.46387c-.04297-.45703-.1416-.82227-.2959-1.0957-.28711-.50781-.76562-.76172-1.43555-.76172-.48047,0-.88281,.1748-1.20801,.52441-.32617,.34961-.49805,.79395-.51758,1.33301h3.45703Z"/></g></svg>